<svg width="59" height="59" viewBox="0 0 59 59" fill="none" xmlns="http://www.w3.org/2000/svg">
<g clip-path="url(#clip0_1_2)">
<circle cx="29.5" cy="29.5" r="29.5" fill="#E2E8FF"/>
<path d="M24.9253 18.3719C26.227 16.9638 28.02 16.0938 30 16.0938C31.98 16.0938 33.773 16.9638 35.0747 18.3719L37.2087 16.0544C35.3643 14.0537 32.8142 12.8163 30 12.8163C27.1858 12.8163 24.6357 14.0537 22.7913 16.0544L24.9253 18.3719ZM21.189 14.3163C23.444 11.8713 26.5588 10.36 30 10.36C33.4412 10.36 36.556 11.8713 38.811 14.3163L41 11.9425C38.1858 8.88813 34.2973 7 30 7C25.7027 7 21.8142 8.88813 19 11.9425L21.189 14.3163ZM33.6667 22H26.3333C26.3975 20.3013 27.7065 18.7431 30 18.7431C32.2788 18.7431 33.6025 20.3013 33.6667 22Z" fill="#4B586A"/>
<path d="M44.7183 34.842C45.6502 36.5551 46.0979 38.0949 46.0979 40.1373C46.0979 42.1162 45.519 43.7961 44.6323 45.8877V48.5556C44.6323 49.3529 43.979 50 43.174 50H40.9865C40.1815 50 39.5281 49.3529 39.5281 48.5556V47.1111H20.5698V48.5556C20.5698 49.3529 19.9165 50 19.1115 50H16.924C16.119 50 15.4656 49.3529 15.4656 48.5556V45.8877C14.579 43.7961 14 42.1162 14 40.1373C14 38.0949 14.4477 36.5551 15.3796 34.842C16.5885 32.6219 18.079 29.8543 19.6525 27.2558C20.86 25.2596 21.4929 24.7901 22.9746 24.5272C25.2088 24.13 27.23 24 30.049 24C32.8679 24 34.8892 24.13 37.1233 24.5272C38.605 24.7901 39.2379 25.2596 40.4454 27.2558C42.019 29.8543 43.5094 32.6219 44.7183 34.842ZM21.299 39.1667C21.299 37.9707 20.319 37 19.1115 37C17.904 37 16.924 37.9707 16.924 39.1667C16.924 40.3627 17.904 41.3333 19.1115 41.3333C20.319 41.3333 21.299 40.3627 21.299 39.1667ZM35.8823 40.6111C35.8823 40.2124 35.5556 39.8889 35.1531 39.8889H24.9448C24.5423 39.8889 24.2156 40.2124 24.2156 40.6111C24.2156 41.0098 24.5423 41.3333 24.9448 41.3333H35.1531C35.5556 41.3333 35.8823 41.0098 35.8823 40.6111ZM40.1712 32.6277C40.1712 32.6277 39.0921 29.9901 37.7927 28.0892C37.4981 27.6588 37.0417 27.3641 36.5254 27.2717C34.3219 26.8788 32.391 26.7531 30.049 26.7531C27.7069 26.7531 25.776 26.8788 23.5725 27.2717C23.0563 27.3627 22.5998 27.6573 22.3052 28.0892C21.0058 29.9887 19.9267 32.6277 19.9267 32.6277C22.3183 33.0798 26.2106 33.3456 30.049 33.3456C33.8873 33.3456 37.7796 33.0798 40.1712 32.6277ZM43.174 39.1667C43.174 37.9707 42.194 37 40.9865 37C39.779 37 38.799 37.9707 38.799 39.1667C38.799 40.3627 39.779 41.3333 40.9865 41.3333C42.194 41.3333 43.174 40.3627 43.174 39.1667Z" fill="#4B586A"/>
</g>
<defs>
<clipPath id="clip0_1_2">
<rect width="59" height="59" fill="white"/>
</clipPath>
</defs>
</svg>
